<?xml version="1.0" encoding="iso-8859-1"?>
<!-- Generator: Adobe Illustrator 19.0.0, SVG Export Plug-In . SVG Version: 6.00 Build 0)  -->
<svg version="1.1" id="Capa_1" xmlns="http://www.w3.org/2000/svg" xmlns:xlink="http://www.w3.org/1999/xlink" x="0px" y="0px"
	 viewBox="0 0 512 512" style="enable-background:new 0 0 512 512;" xml:space="preserve">
<path style="fill:#66BBB1;" d="M467,461H45c-24.813,0-45-20.187-45-45V96c0-24.813,20.187-45,45-45h422c24.813,0,45,20.187,45,45
	v320C512,440.813,491.813,461,467,461z"/>
<path style="fill:#4CA196;" d="M0,256v160c0,24.813,20.187,45,45,45h422c24.813,0,45-20.187,45-45V256H0z"/>
<path style="fill:#FFF9FC;" d="M88.894,355.702c-5.858-5.858-5.858-15.355,0-21.213L167.382,256l-78.488-78.489
	c-5.858-5.858-5.858-15.355,0-21.213c5.857-5.858,15.355-5.858,21.213,0l89.095,89.095c5.858,5.858,5.858,15.355,0,21.213
	l-89.095,89.095C104.25,361.56,94.751,361.56,88.894,355.702z"/>
<g>
	<path style="fill:#DFDAE0;" d="M88.894,334.489c-5.858,5.858-5.858,15.355,0,21.213c5.857,5.858,15.356,5.858,21.213,0
		l89.095-89.095c2.929-2.929,4.393-6.768,4.393-10.606h-36.213L88.894,334.489z"/>
	<path style="fill:#DFDAE0;" d="M413,360H243c-8.284,0-15-6.716-15-15s6.716-15,15-15h170c8.284,0,15,6.716,15,15
		S421.284,360,413,360z"/>
</g>
<g>
</g>
<g>
</g>
<g>
</g>
<g>
</g>
<g>
</g>
<g>
</g>
<g>
</g>
<g>
</g>
<g>
</g>
<g>
</g>
<g>
</g>
<g>
</g>
<g>
</g>
<g>
</g>
<g>
</g>
</svg>
